<?xml version="1.0" encoding="UTF-8" standalone="no"?>
<!-- Created with Inkscape (http://www.inkscape.org/) -->

<svg
   width="225.0px"
   height="225.0px"
   viewBox="0 0 225.0 225.0"
   version="1.1"
   id="SVGRoot"
   sodipodi:docname="ciscolegrandlogo.svg"
   inkscape:version="1.1.1 (3bf5ae0d25, 2021-09-20)"
   xmlns:inkscape="http://www.inkscape.org/namespaces/inkscape"
   xmlns:sodipodi="http://sodipodi.sourceforge.net/DTD/sodipodi-0.dtd"
   xmlns="http://www.w3.org/2000/svg"
   xmlns:svg="http://www.w3.org/2000/svg">
  <sodipodi:namedview
     id="namedview189"
     pagecolor="#ffffff"
     bordercolor="#666666"
     borderopacity="1.0"
     inkscape:pageshadow="2"
     inkscape:pageopacity="0.0"
     inkscape:pagecheckerboard="0"
     inkscape:document-units="px"
     showgrid="true"
     inkscape:zoom="0.7500982"
     inkscape:cx="397.28131"
     inkscape:cy="28.662914"
     inkscape:window-width="1920"
     inkscape:window-height="1027"
     inkscape:window-x="-8"
     inkscape:window-y="-8"
     inkscape:window-maximized="1"
     inkscape:current-layer="layer1">
    <inkscape:grid
       type="xygrid"
       id="grid195" />
  </sodipodi:namedview>
  <defs
     id="defs184" />
  <g
     inkscape:label="Capa 1"
     inkscape:groupmode="layer"
     id="layer1">
    <g
       id="g21"
       transform="matrix(0.90275682,0,0,1.0561431,25.222068,-6.6360505)">
      <path
         fill="#"
         d="M 48.48,86 V 82.22 H 37.8 q -7.44,0 -12.48,-5.04 -5.04,-5.04 -5.04,-12.48 0,-6.84 5.04,-11.76 5.04,-4.92 12.48,-4.92 h 10.68 v -3.9 H 37.8 q -9.06,0 -15.18,6 -6.12,5.94 -6.12,14.58 0,9.18 6.12,15.18 6,6.12 15.18,6.12 z m 8.2104,0.06 h 3.78 V 43.88 h -3.78 z M 79.4808,48.38 h 22.62 v -4.56 h -22.62 q -4.44,0 -7.44,3.48 -3.06,3.54 -3.06,8.58 0,4.56 3.06,7.92 3,3.42 7.44,3.42 h 6 6.12 q 2.7,0 4.8,2.28 1.98,2.4 1.98,5.22 0,3.36 -1.95,5.46 -1.95,2.1 -4.83,2.1 h -22.62 V 86 h 22.62 q 4.5,0 7.5,-3.12 3,-3.12 3,-8.16 0,-4.56 -3,-7.92 -3.06,-3.36 -7.5,-3.36 h -6.12 -6 q -2.76,0 -4.74,-2.4 -2.04,-2.22 -2.04,-5.16 0,-3.36 1.95,-5.43 1.95,-2.07 4.83,-2.07 z M 141.8712,86 v -3.78 h -10.68 q -7.44,0 -12.48,-5.04 -5.04,-5.04 -5.04,-12.48 0,-6.84 5.04,-11.76 5.04,-4.92 12.48,-4.92 h 10.68 v -3.9 h -10.68 q -9.06,0 -15.18,6 -6.12,5.94 -6.12,14.58 0,9.18 6.12,15.18 6,6.12 15.18,6.12 z m 24.1704,-42 q -6.78,0 -11.64,4.86 -4.92,4.92 -4.92,11.7 v 9.06 q 0,6.66 4.92,11.58 4.92,4.92 11.64,4.92 6.78,0 11.7,-4.92 4.86,-4.86 4.86,-11.58 v -9.06 q 0,-6.84 -4.86,-11.7 -4.86,-4.86 -11.7,-4.86 z m 12.84,16.56 v 9.06 q 0,5.46 -3.84,9.18 -3.78,3.6 -9,3.6 -5.22,0 -8.94,-3.6 -3.84,-3.72 -3.84,-9.18 v -9.06 q 0,-5.04 3.84,-9 3.84,-3.84 8.94,-3.84 5.04,0 9,3.84 3.84,3.96 3.84,9 z"
         id="path9" />
      <path
         fill="#"
         d=""
         id="path11" />
    </g>
    <g
       id="g35"
       transform="matrix(0.72627057,0,0,1.7287307,7.1265333,-77.622287)"
       style="fill:#0000ff">
      <path
         fill="#"
         d="m 17.978516,139.12109 q 0,-1.41601 0.12207,-2.97851 0.12207,-1.5625 0.219726,-2.92969 l 0.292969,-7.32422 q 0.488281,-8.78906 1.196289,-17.28515 0.708008,-8.4961 1.196289,-17.187504 0.292969,-4.785157 0.439453,-9.399414 0.146485,-4.614258 0.439454,-9.399415 -0.195313,-0.390625 -0.195313,-0.537109 0,-0.683594 0.512695,-1.074219 0.512696,-0.390625 1.196289,-0.659179 0.683594,-0.268555 1.44043,-0.366211 0.756836,-0.09766 1.147461,-0.09766 h 1.123047 q 1.513672,0.195313 2.197266,0.952149 0.683593,0.756836 0.878906,1.806641 0.195312,1.049804 0.09766,2.246093 -0.09766,1.196289 -0.09766,2.22168 0,7.080078 -0.341797,14.428711 -0.341797,7.348633 -0.78125,14.746097 -0.439453,7.39746 -0.805664,14.79492 -0.366211,7.39746 -0.366211,14.62402 v 3.41797 q 0,2.29493 -1.293945,3.02735 -1.293946,0.73242 -3.588868,0.73242 -2.001953,0 -3.515625,-0.87891 -1.513671,-0.8789 -1.513671,-2.88086 z m 22.395996,-15.33203 q 0,-3.41797 0.756836,-8.05664 0.756836,-4.63867 2.563476,-8.78906 1.806641,-4.15039 4.760742,-7.055665 2.954102,-2.905273 7.446289,-2.905273 4.199219,0 6.298829,2.416992 2.099609,2.416996 2.099609,6.518556 0,2.68555 -1.000977,5.88379 -1.000976,3.19824 -2.856445,6.05469 -1.855469,2.85644 -4.394531,4.76074 -2.539063,1.90429 -5.664063,1.90429 l -1.269531,-0.0977 q 0,1.31836 0.390625,3.54004 0.390625,2.22168 1.147461,4.41894 0.756836,2.19727 1.953125,3.85742 1.196289,1.66016 2.905273,1.66016 2.490235,0 4.785157,-2.00195 2.294922,-2.00196 4.345703,-4.44336 2.050781,-2.44141 3.808594,-4.44336 1.757812,-2.00195 3.222656,-2.00195 0.78125,0 1.611328,0.24414 0.830078,0.24414 0.927734,1.36718 0,0.6836 -0.366211,1.12305 -0.366211,0.43945 -0.659179,0.97656 -1.513672,2.58789 -3.295899,4.93164 -1.782226,2.34375 -4.02832,4.24805 -2.246094,1.9043 -4.907227,3.00293 -2.661132,1.09863 -5.883789,1.09863 -4.199218,0 -6.982422,-1.48925 -2.783203,-1.48926 -4.492187,-4.00391 -1.708984,-2.51465 -2.46582,-5.81055 -0.756836,-3.2959 -0.756836,-6.90918 z m 8.740234,-3.71093 1.367188,1.2207 q 0.976562,0.8789 1.953125,0.39062 0.976562,-0.48828 1.757812,-1.78222 0.78125,-1.29395 1.44043,-3.19825 0.659179,-1.90429 1.171875,-3.90625 0.512695,-2.00195 0.756836,-3.90625 0.24414,-1.90429 0.24414,-3.17382 v -1.66016 q 0,0 -0.146484,-1.75781 -0.146484,-1.75781 -0.512695,-1.3916 -0.366211,0.36621 -1.147461,-0.70801 -0.244141,-0.0488 -0.439453,-0.0488 -1.660157,0 -2.832032,2.09961 -1.269531,2.34375 -2.050781,5.68848 -0.78125,3.34472 -1.123047,6.86035 -0.341797,3.51562 -0.439453,5.27344 z m 32.063965,0 q 0,-2.68555 0.512695,-5.73731 0.512696,-3.05176 1.757813,-5.59082 1.245117,-2.53906 3.442383,-4.19922 2.197265,-1.66015 5.615234,-1.66015 2.294922,0 4.443359,0.75683 2.148438,0.75684 4.052735,2.0752 0.58594,-0.97657 1.85547,-1.19629 1.26953,-0.21973 2.24609,-0.21973 0.39063,0 1.09864,0.0488 0.708,0.0488 1.3916,0.29297 0.68359,0.24414 1.19629,0.58594 0.51269,0.34179 0.61035,0.97656 0.39062,3.41797 0.53711,6.81152 0.14648,3.39356 0.43945,6.7627 0.48828,6.29882 1.51367,12.45117 1.02539,6.15234 1.02539,12.45117 0,2.97852 -0.26855,6.44531 -0.26856,3.4668 -1.41602,6.4209 -1.14746,2.9541 -3.34472,4.90723 -2.19727,1.95312 -6.10352,1.95312 -3.515625,0 -5.395508,-1.24511 -1.879883,-1.24512 -3.393555,-4.17481 0.09766,-0.97656 1.245117,-1.29394 1.147461,-0.31739 1.977539,-0.31739 0.78125,0 1.586914,0.14649 0.805665,0.14648 1.293946,0.48828 l 1.220707,0.78125 q 1.80664,-3.71094 2.19726,-8.10547 0.39063,-4.39453 0.39063,-8.49609 0,-3.41797 -0.3418,-6.7627 -0.3418,-3.34473 -0.68359,-6.71387 -3.417973,6.20117 -10.400395,6.20117 -3.222656,0 -5.249023,-1.36718 -2.026367,-1.36719 -3.125,-3.4668 -1.098633,-2.09961 -1.513672,-4.73633 -0.415039,-2.63672 -0.415039,-5.27343 z m 6.005859,0.43945 q 0,1.2207 0.09766,3.14941 0.09766,1.92871 0.512695,3.78418 0.415039,1.85547 1.196289,3.19824 0.78125,1.34278 2.197266,1.34278 2.685546,0 4.248046,-2.09961 1.5625,-2.09961 2.465821,-5.00488 0.90332,-2.90528 1.440429,-6.00586 0.53711,-3.10059 1.367184,-5.10254 -0.0977,-0.6836 -0.0977,-1.34278 v -1.34277 q -1.123039,-2.09961 -3.271477,-3.6377 -2.148437,-1.53808 -4.443359,-2.07519 -0.292969,-0.0488 -0.537109,-0.0488 -1.367188,0 -2.246094,1.61133 -1.123047,1.95312 -1.757813,4.66309 -0.634765,2.70996 -0.90332,5.34668 -0.268555,2.63671 -0.268555,3.56445 z m 35.72607,-12.40235 q 0,-2.00195 0.70801,-3.36914 0.70801,-1.36718 3.00293,-1.36718 0.87891,0 2.19727,0.26855 1.31836,0.26856 1.51367,1.34277 0.48828,2.88086 0.53711,6.25 0.0488,3.36915 0.3418,6.34766 1.12304,-2.19726 2.88086,-4.73633 1.75781,-2.53906 4.0039,-4.6875 2.2461,-2.14843 4.88281,-3.56445 2.63672,-1.41602 5.3711,-1.41602 0.19531,0 0.73242,0.14649 0.53711,0.14648 1.00098,0.41504 0.46386,0.26855 0.56152,0.61035 0.0977,0.3418 -0.53711,0.63476 -0.19531,0.58594 -0.83008,0.70801 -0.63476,0.12207 -1.12304,0.12207 -0.29297,0 -0.92774,-0.24414 -3.61328,1.9043 -6.15234,5.17578 -2.53907,3.27149 -4.15039,7.25098 -1.61133,3.97949 -2.34375,8.39844 -0.73243,4.41894 -0.73243,8.61816 0,2.09961 -0.95214,2.53906 -0.95215,0.43946 -3.05176,0.43946 -1.12305,0 -2.36817,-0.24414 -1.24511,-0.24414 -1.73339,-1.5625 -0.87891,-2.78321 -1.44043,-6.39649 -0.56153,-3.61328 -0.8545,-7.44629 -0.29296,-3.833 -0.41504,-7.54394 -0.12207,-3.71094 -0.12207,-6.68946 z m 34.70069,13.67188 q 0,-3.32031 0.90332,-6.39648 0.90332,-3.07618 2.70996,-5.49317 1.80664,-2.41699 4.5166,-3.85742 2.70996,-1.44043 6.27441,-1.44043 2.19727,0 4.8584,0.65918 2.66114,0.65918 5.00489,1.95312 2.34375,1.29395 3.90625,3.2959 1.5625,2.00196 1.5625,4.58985 0,1.2207 -0.41504,1.85547 -0.41504,0.63476 -1.68457,0.63476 l -0.53711,-0.0977 q 1.41601,3.8086 2.4414,7.8125 1.02539,4.00391 2.00196,8.00782 0.39062,0.78125 0.58593,1.3916 0.19532,0.61035 0.19532,1.19629 0,0.78125 -0.43946,1.29394 -0.43945,0.5127 -1.14746,0.75684 -0.70801,0.24414 -1.46484,0.3418 -0.75684,0.0976 -1.34277,0.0976 -2.09961,0 -3.14942,-0.73242 -1.0498,-0.73242 -1.51367,-2.00195 -0.46387,-1.26953 -0.56152,-2.85645 -0.0977,-1.58691 -0.39063,-3.19824 -0.58594,1.9043 -1.53808,3.71094 -0.95215,1.80664 -2.2461,3.24707 -1.29394,1.44043 -3.05176,2.29492 -1.75781,0.85449 -3.95507,0.85449 -3.22266,0 -5.41993,-1.85547 -2.19726,-1.85547 -3.54004,-4.56543 -1.34277,-2.70996 -1.95312,-5.78613 -0.61035,-3.07617 -0.61035,-5.71289 z m 6.93359,-0.68359 q 0,1.80664 0.24414,3.80859 0.24414,2.00195 0.80567,3.95508 0.56152,1.95312 1.44043,3.68652 0.8789,1.7334 2.19726,3.05176 2.39258,-2.58789 3.54004,-6.29883 1.14746,-3.71094 2.05078,-7.15332 0.90332,-3.44238 2.05078,-5.9082 1.14746,-2.46582 3.54004,-2.46582 1.51367,0 2.53906,0.53711 -0.48828,-1.22071 -1.61132,-2.36817 -1.12305,-1.14746 -2.51465,-2.09961 -1.3916,-0.95215 -2.88086,-1.5625 -1.48926,-0.61035 -2.80762,-0.61035 -0.39062,0 -0.90332,0.12207 -0.51269,0.12207 -0.80566,0.0244 -2.00196,0.58593 -3.2959,2.02636 -1.29395,1.44043 -2.09961,3.39356 -0.80566,1.95312 -1.14746,4.0039 -0.3418,2.05079 -0.3418,3.85743 z m 35.43311,0.92773 v -1.41602 q 0,-1.75781 0.0977,-3.32031 0.0977,-2.19726 0.0977,-3.61328 0,-0.78125 0.0977,-1.78223 0.0977,-1.00097 0.48828,-1.58691 0.48828,-0.48828 1.14746,-1.00098 0.65918,-0.51269 1.44043,-0.51269 2.49023,0 3.90625,0.56152 1.41601,0.56153 1.51367,2.31934 l 0.19531,1.51367 q 0.87891,-2.09961 2.34375,-5.2002 1.46485,-3.10058 3.39356,-5.9082 1.92871,-2.807616 4.3457,-4.785155 2.41699,-1.977539 5.10254,-1.977539 2.49023,0 4.10156,2.34375 1.61133,2.343754 2.56348,5.981444 0.95215,3.6377 1.34277,8.10547 0.39063,4.46777 0.53711,8.76465 0.14649,4.29687 0.19531,7.83691 0.0488,3.54004 0.3418,5.34668 0.19531,1.51367 0.65918,3.19824 0.46387,1.68457 0.46387,3.10059 0,0.39062 -0.56153,0.75684 -0.56152,0.36621 -1.19629,0.61035 -0.63476,0.24414 -1.29394,0.39062 -0.65918,0.14649 -0.95215,0.14649 -1.9043,0 -2.70996,-2.85645 -0.80566,-2.85644 -1.00098,-7.15332 -0.19531,-4.29687 -0.19531,-9.30176 0,-5.00488 -0.3418,-9.30175 -0.34179,-4.29688 -1.3916,-7.15332 -1.0498,-2.85645 -3.34472,-2.95411 -2.09961,0 -4.34571,2.70996 -2.24609,2.70997 -3.85742,7.20215 -1.5625,4.49219 -2.14844,10.20508 -0.19531,1.80664 -0.19531,3.61328 0,3.95508 0.83008,7.91016 0.0977,0.68359 -0.56152,1.02539 -0.65918,0.3418 -1.63575,0.53711 -0.97656,0.19531 -1.97754,0.24414 -1.00097,0.0488 -1.53808,0.0488 -1.9043,0 -3.05176,-1.34278 -1.14746,-1.34277 -1.78223,-3.44238 -0.63476,-2.09961 -0.85449,-4.71191 -0.21972,-2.61231 -0.26855,-5.15137 z m 44.36865,-0.83008 q 0,-3.80859 0.80566,-6.90918 0.80567,-3.10058 2.56348,-5.24902 1.75781,-2.14844 4.61426,-3.34473 2.85644,-1.19629 6.95801,-1.19629 2.29492,0 4.6875,0.61035 2.39257,0.61036 4.10156,2.27051 0,-0.97656 0.19531,-4.02832 0.19531,-3.05176 0.48828,-7.10449 0.29297,-4.052734 0.61035,-8.496094 0.31739,-4.443359 0.56153,-8.251953 0.24414,-3.808594 0.43945,-6.396484 0.19531,-2.587891 0.29297,-2.929688 0.48828,-1.416015 1.80664,-1.68457 1.31836,-0.268555 2.49023,-0.268555 3.07618,0 3.78418,0.976563 0.70801,0.976562 0.70801,3.90625 0,10.693359 -0.95215,21.289062 -0.95215,10.595699 -0.95215,21.289059 0,6.88477 0.26856,13.84278 0.26855,6.958 1.92871,13.69629 l 0.53711,0.48828 0.29297,0.8789 -0.73242,1.12305 q -1.85547,1.17188 -4.29688,1.17188 h -0.19531 q -2.49024,0 -4.58984,-1.17188 -0.78125,-0.48828 -1.29395,-2.90527 -0.5127,-2.417 -0.80566,-5.32227 -0.29297,-2.90527 -0.43946,-5.59082 -0.14648,-2.68555 -0.24414,-3.80859 -1.70898,3.90625 -4.66308,6.71386 -2.95411,2.80762 -7.44629,2.80762 -3.51563,0 -5.76172,-1.51367 -2.2461,-1.51367 -3.49121,-3.85742 -1.24512,-2.34375 -1.75782,-5.24903 -0.51269,-2.90527 -0.51269,-5.78613 z m 5.9082,0.29297 q 0,1.12305 0.26856,3.32031 0.26855,2.19727 0.85449,4.39453 0.58594,2.19727 1.63574,3.90625 1.04981,1.70899 2.75879,1.70899 2.29492,-1.12305 4.15039,-3.73535 1.85547,-2.61231 3.19824,-5.76172 1.34278,-3.14942 2.09961,-6.29883 0.75684,-3.14941 0.75684,-5.44434 0,-2.88085 -2.09961,-4.78515 -2.09961,-1.9043 -5.0293,-1.9043 -0.8789,0 -1.78222,0.3418 -0.90332,0.3418 -1.68457,0.78125 -1.80664,1.70898 -2.80762,3.10058 -1.00098,1.39161 -1.51367,2.88086 -0.5127,1.48926 -0.65918,3.2959 -0.14649,1.80664 -0.14649,4.19922 z"
         id="path23"
         style="fill:#0000ff" />
      <path
         fill="#"
         d=""
         id="path25"
         style="fill:#0000ff" />
    </g>
  </g>
</svg>
