<?xml version="1.0" standalone="no"?>
<!DOCTYPE svg PUBLIC "-//W3C//DTD SVG 20010904//EN"
 "http://www.w3.org/TR/2001/REC-SVG-20010904/DTD/svg10.dtd">
<svg version="1.0" xmlns="http://www.w3.org/2000/svg"
 width="1280.000000pt" height="1280.000000pt" viewBox="0 0 1280.000000 1280.000000"
 preserveAspectRatio="xMidYMid meet">
<metadata>
Created by potrace 1.15, written by Peter Selinger 2001-2017
</metadata>
<g transform="translate(0.000000,1280.000000) scale(0.100000,-0.100000)"
fill="#fff" stroke="none">
<path d="M3035 12789 c-144 -13 -390 -55 -540 -94 -1169 -301 -2089 -1221
-2390 -2390 -40 -157 -81 -397 -95 -560 -6 -78 -10 -1256 -10 -3346 0 -3508
-2 -3362 55 -3675 157 -855 646 -1617 1358 -2118 498 -350 1058 -549 1677
-596 214 -16 6632 -9 6750 8 576 82 1009 238 1444 519 193 125 323 230 509
413 320 312 548 637 722 1033 134 302 211 587 267 977 17 118 24 6536 8 6750
-45 585 -225 1118 -541 1595 -503 760 -1282 1276 -2173 1440 -313 57 -163 55
-3695 54 -1785 -1 -3291 -6 -3346 -10z m6705 -1099 c927 -114 1678 -775 1905
-1675 69 -274 65 -29 65 -3620 0 -2856 -2 -3258 -15 -3362 -50 -379 -194 -738
-423 -1047 -96 -130 -328 -362 -458 -458 -309 -229 -668 -373 -1047 -423 -104
-13 -506 -15 -3362 -15 -3591 0 -3346 -4 -3620 65 -903 228 -1571 990 -1675
1914 -8 68 -10 1065 -8 3386 l3 3290 28 138 c162 811 724 1453 1494 1707 132
43 345 91 463 103 91 10 6571 6 6650 -3z"/>
<path d="M9785 10656 c-278 -65 -491 -272 -559 -547 -23 -93 -21 -255 4 -353
110 -432 583 -666 995 -493 111 46 253 160 316 253 175 258 173 598 -6 849
-89 125 -211 215 -362 268 -75 26 -106 30 -208 33 -78 3 -141 -1 -180 -10z"/>
<path d="M6195 9574 c-786 -62 -1494 -384 -2039 -930 -504 -503 -813 -1135
-913 -1864 -24 -177 -24 -596 1 -775 71 -521 231 -950 511 -1370 436 -655
1087 -1123 1837 -1320 470 -123 982 -137 1457 -39 612 126 1160 422 1606 869
507 507 815 1133 912 1855 22 167 25 590 5 750 -94 744 -404 1383 -922 1900
-500 499 -1139 811 -1855 905 -114 16 -494 27 -600 19z m400 -975 c428 -36
853 -207 1195 -479 113 -91 299 -283 386 -400 224 -300 361 -628 421 -1005 24
-154 24 -487 0 -644 -152 -971 -897 -1716 -1868 -1868 -153 -24 -499 -24 -647
0 -732 118 -1341 565 -1662 1220 -332 676 -298 1470 91 2114 177 292 460 575
752 752 399 241 869 350 1332 310z"/>
</g>
</svg>
